{"accessors":[{"bufferView":2,"componentType":5126,"count":273,"max":[-0.1566469967365265,0.2071859985589981,-0.7922250032424927],"min":[-0.29854801297187805,-0.1661369949579239,-0.9341260194778442],"type":"VEC3","byteOffset":0},{"bufferView":2,"byteOffset":3276,"componentType":5126,"count":273,"max":[0.999779224395752,0.8989922404289246,0.999779224395752],"min":[-0.999779224395752,-0.19737297296524048,-0.999779224395752],"type":"VEC3"},{"bufferView":3,"componentType":5126,"count":273,"max":[0.5165780186653137,0.9997770190238953,0.9944810271263123,1],"min":[-0.9445940256118774,-0.9997770190238953,-0.24099600315093994,1],"type":"VEC4","byteOffset":0},{"bufferView":1,"componentType":5126,"count":273,"max":[0.9229869842529297,1],"min":[0,0],"type":"VEC2","byteOffset":0},{"bufferView":0,"componentType":5125,"count":1140,"max":[272],"min":[0],"type":"SCALAR","byteOffset":0},{"bufferView":2,"byteOffset":6552,"componentType":5126,"count":661,"max":[0.3175010085105896,0.02234170027077198,1],"min":[-0.32870298624038696,-0.08110799640417099,0.5807549953460693],"type":"VEC3"},{"bufferView":2,"byteOffset":14484,"componentType":5126,"count":661,"max":[0.9964897632598877,0.9999729990959167,1],"min":[-0.9984082579612732,-0.9999729990959167,-1],"type":"VEC3"},{"bufferView":3,"byteOffset":4368,"componentType":5126,"count":661,"max":[0.6338639855384827,1,0.7366780042648315,1],"min":[-0.9601140022277832,-1,-0.9490910172462463,1],"type":"VEC4"},{"bufferView":1,"byteOffset":2184,"componentType":5126,"count":661,"max":[1,0.8643100261688232],"min":[0,0],"type":"VEC2"},{"bufferView":0,"byteOffset":4560,"componentType":5125,"count":2652,"max":[660],"min":[0],"type":"SCALAR"},{"bufferView":2,"byteOffset":22416,"componentType":5126,"count":8608,"max":[0.4059459865093231,0.19069300591945648,0.8979290127754211],"min":[-0.4059459865093231,-0.2071859985589981,-1],"type":"VEC3"},{"bufferView":2,"byteOffset":125712,"componentType":5126,"count":8608,"max":[0.99931401014328,1,1],"min":[-0.9992252588272095,-1,-1],"type":"VEC3"},{"bufferView":3,"byteOffset":14944,"componentType":5126,"count":8608,"max":[1,1,1,1],"min":[-1,-1,-1,-1],"type":"VEC4"},{"bufferView":1,"byteOffset":7472,"componentType":5126,"count":8608,"max":[0.9957299828529358,1],"min":[0,0],"type":"VEC2"},{"bufferView":0,"byteOffset":15168,"componentType":5125,"count":25308,"max":[8607],"min":[0],"type":"SCALAR"},{"bufferView":2,"byteOffset":229008,"componentType":5126,"count":990,"max":[-0.23085300624370575,0.1360190063714981,0.7766090035438538],"min":[-0.3788830041885376,-0.16065900027751923,-0.9877110123634338],"type":"VEC3"},{"bufferView":2,"byteOffset":240888,"componentType":5126,"count":990,"max":[0.9996423721313477,0.9919906258583069,1],"min":[-0.9996864795684814,-0.9963644742965698,-1],"type":"VEC3"},{"bufferView":3,"byteOffset":152672,"componentType":5126,"count":990,"max":[1,0.996612012386322,0.9999979734420776,1],"min":[-0.9999769926071167,-1,-0.9999769926071167,1],"type":"VEC4"},{"bufferView":1,"byteOffset":76336,"componentType":5126,"count":990,"max":[1,0.937146008014679],"min":[0,0],"type":"VEC2"},{"bufferView":0,"byteOffset":116400,"componentType":5125,"count":3585,"max":[989],"min":[0],"type":"SCALAR"},{"bufferView":2,"byteOffset":252768,"componentType":5126,"count":1363,"max":[0.312608003616333,0.20217999815940857,0.7680529952049255],"min":[-0.3205470144748688,-0.14532099664211273,-0.32173100113868713],"type":"VEC3"},{"bufferView":2,"byteOffset":269124,"componentType":5126,"count":1363,"max":[0.9867110252380371,1,0.9969192147254944],"min":[-0.9964104890823364,-1,-0.9967361092567444],"type":"VEC3"},{"bufferView":3,"byteOffset":168512,"componentType":5126,"count":1363,"max":[0.9207320213317871,0.9999390244483948,1,1],"min":[-0.9771019816398621,-0.9952099919319153,-1,1],"type":"VEC4"},{"bufferView":1,"byteOffset":84256,"componentType":5126,"count":1363,"max":[0.9953309893608093,1],"min":[0,0],"type":"VEC2"},{"bufferView":0,"byteOffset":130740,"componentType":5125,"count":5811,"max":[1362],"min":[0],"type":"SCALAR"}],"asset":{"extras":{"author":"Macovei Tudor (https://sketchfab.com/morcovel.tudor)","license":"CC-BY-4.0 (http://creativecommons.org/licenses/by/4.0/)","source":"https://sketchfab.com/models/79813296615b475abbe4bb721114dd98","title":"Car Keys"},"generator":"Sketchfab-3.19.6","version":"2.0"},"bufferViews":[{"buffer":0,"byteLength":153984,"byteOffset":0,"name":"floatBufferViews","target":34963},{"buffer":0,"byteLength":95160,"byteOffset":153984,"byteStride":8,"name":"floatBufferViews","target":34962},{"buffer":0,"byteLength":285480,"byteOffset":249144,"byteStride":12,"name":"floatBufferViews","target":34962},{"buffer":0,"byteLength":190320,"byteOffset":534624,"byteStride":16,"name":"floatBufferViews","target":34962},{"buffer":0,"byteOffset":724944,"byteLength":59322},{"buffer":0,"byteOffset":784268,"byteLength":50435},{"buffer":0,"byteOffset":834704,"byteLength":25618},{"buffer":0,"byteOffset":860324,"byteLength":58243},{"buffer":0,"byteOffset":918568,"byteLength":50883},{"buffer":0,"byteOffset":969452,"byteLength":27651},{"buffer":0,"byteOffset":997104,"byteLength":59509},{"buffer":0,"byteOffset":1056616,"byteLength":34960},{"buffer":0,"byteOffset":1091576,"byteLength":19583},{"buffer":0,"byteOffset":1111160,"byteLength":51125},{"buffer":0,"byteOffset":1162288,"byteLength":50108},{"buffer":0,"byteOffset":1212396,"byteLength":18108},{"buffer":0,"byteOffset":1230504,"byteLength":62736},{"buffer":0,"byteOffset":1293240,"byteLength":56718},{"buffer":0,"byteOffset":1349960,"byteLength":45546}],"buffers":[{"byteLength":1395508,"uri":"data:application/octet-stream;base64,"}],"images":[{"bufferView":4,"mimeType":"image/png"},{"bufferView":5,"mimeType":"image/png"},{"bufferView":6,"mimeType":"image/jpeg"},{"bufferView":7,"mimeType":"image/png"},{"bufferView":8,"mimeType":"image/png"},{"bufferView":9,"mimeType":"image/jpeg"},{"bufferView":10,"mimeType":"image/png"},{"bufferView":11,"mimeType":"image/png"},{"bufferView":12,"mimeType":"image/jpeg"},{"bufferView":13,"mimeType":"image/png"},{"bufferView":14,"mimeType":"image/png"},{"bufferView":15,"mimeType":"image/jpeg"},{"bufferView":16,"mimeType":"image/png"},{"bufferView":17,"mimeType":"image/png"},{"bufferView":18,"mimeType":"image/jpeg"}],"materials":[{"doubleSided":true,"emissiveFactor":[0,0,0],"name":"Keypad","normalTexture":{"index":10,"scale":1,"texCoord":0},"occlusionTexture":{"index":9,"strength":1,"texCoord":0},"pbrMetallicRoughness":{"baseColorFactor":[1,1,1,1],"baseColorTexture":{"index":11,"texCoord":0},"metallicFactor":1,"metallicRoughnessTexture":{"index":9,"texCoord":0},"roughnessFactor":1},"alphaMode":"OPAQUE"},{"doubleSided":true,"emissiveFactor":[0,0,0],"name":"material","normalTexture":{"index":7,"scale":1,"texCoord":0},"occlusionTexture":{"index":6,"strength":1,"texCoord":0},"pbrMetallicRoughness":{"baseColorFactor":[0.5809832317,0.5809832317,0.5809832317,1],"baseColorTexture":{"index":8,"texCoord":0},"metallicFactor":1,"metallicRoughnessTexture":{"index":6,"texCoord":0},"roughnessFactor":0.3919588415},"alphaMode":"OPAQUE"},{"doubleSided":true,"emissiveFactor":[0,0,0],"name":"Body","normalTexture":{"index":1,"scale":1,"texCoord":0},"occlusionTexture":{"index":0,"strength":1,"texCoord":0},"pbrMetallicRoughness":{"baseColorFactor":[1,1,1,1],"baseColorTexture":{"index":2,"texCoord":0},"metallicFactor":1,"metallicRoughnessTexture":{"index":0,"texCoord":0},"roughnessFactor":1},"alphaMode":"OPAQUE"},{"doubleSided":true,"emissiveFactor":[0,0,0],"name":"Back_Metal","normalTexture":{"index":13,"scale":1,"texCoord":0},"occlusionTexture":{"index":12,"strength":1,"texCoord":0},"pbrMetallicRoughness":{"baseColorFactor":[1,1,1,1],"baseColorTexture":{"index":14,"texCoord":0},"metallicFactor":1,"metallicRoughnessTexture":{"index":12,"texCoord":0},"roughnessFactor":1},"alphaMode":"OPAQUE"},{"doubleSided":true,"emissiveFactor":[0,0,0],"name":"Cylinder","normalTexture":{"index":4,"scale":1,"texCoord":0},"occlusionTexture":{"index":3,"strength":1,"texCoord":0},"pbrMetallicRoughness":{"baseColorFactor":[1,1,1,1],"baseColorTexture":{"index":5,"texCoord":0},"metallicFactor":1,"metallicRoughnessTexture":{"index":3,"texCoord":0},"roughnessFactor":1},"alphaMode":"OPAQUE"}],"meshes":[{"name":"defaultMaterial","primitives":[{"attributes":{"NORMAL":1,"POSITION":0,"TANGENT":2,"TEXCOORD_0":3},"indices":4,"material":4,"mode":4}]},{"name":"defaultMaterial","primitives":[{"attributes":{"NORMAL":6,"POSITION":5,"TANGENT":7,"TEXCOORD_0":8},"indices":9,"material":3,"mode":4}]},{"name":"defaultMaterial","primitives":[{"attributes":{"NORMAL":11,"POSITION":10,"TANGENT":12,"TEXCOORD_0":13},"indices":14,"material":2,"mode":4}]},{"name":"defaultMaterial","primitives":[{"attributes":{"NORMAL":16,"POSITION":15,"TANGENT":17,"TEXCOORD_0":18},"indices":19,"material":1,"mode":4}]},{"name":"defaultMaterial","primitives":[{"attributes":{"NORMAL":21,"POSITION":20,"TANGENT":22,"TEXCOORD_0":23},"indices":24,"material":0,"mode":4}]}],"nodes":[{"children":[1],"name":"RootNode (gltf orientation matrix)","rotation":[-0.7071067811865475,0,0,0.7071067811865476],"translation":[0,0,0],"scale":[1,1,1]},{"children":[2],"name":"RootNode (model correction matrix)"},{"children":[3,5,7,9,11],"matrix":[1,0,0,0,0,-4.371139006309477e-8,0.999999999999999,0,0,-0.999999999999999,-4.371139006309477e-8,0,0,0,0,1],"name":"Collada visual scene group"},{"children":[4],"name":"Cylinder"},{"mesh":0,"name":"defaultMaterial"},{"children":[6],"name":"back"},{"mesh":1,"name":"defaultMaterial"},{"children":[8],"name":"Body"},{"mesh":2,"name":"defaultMaterial"},{"children":[10],"name":"Key"},{"mesh":3,"name":"defaultMaterial"},{"children":[12],"name":"Keypad"},{"mesh":4,"name":"defaultMaterial"}],"samplers":[{"magFilter":9729,"minFilter":9987,"wrapS":10497,"wrapT":10497}],"scene":0,"scenes":[{"name":"OSG_Scene","nodes":[0]}],"textures":[{"sampler":0,"source":0},{"sampler":0,"source":1},{"sampler":0,"source":2},{"sampler":0,"source":3},{"sampler":0,"source":4},{"sampler":0,"source":5},{"sampler":0,"source":6},{"sampler":0,"source":7},{"sampler":0,"source":8},{"sampler":0,"source":9},{"sampler":0,"source":10},{"sampler":0,"source":11},{"sampler":0,"source":12},{"sampler":0,"source":13},{"sampler":0,"source":14}]}
